<svg width="173" height="115" viewBox="0 0 173 115" fill="none" xmlns="http://www.w3.org/2000/svg">
<rect width="172.5" height="115" fill="#5C5C5C"/>
<path d="M88.0549 85.4816H85.3772V64.4201C85.3702 63.6489 85.0789 56.836 76.8929 56.836H75.554V47.649H40.7326V56.836H39.3937C31.2095 56.836 30.9182 63.6489 30.9112 64.4253V71.6462H28.2334V64.4201C28.2334 61.0571 30.3268 54.8549 38.0548 54.2118V44.9712H78.2318V54.2118C85.9615 54.8549 88.0549 61.0571 88.0549 64.4201V85.4816Z" fill="black"/>
<path d="M86.716 99.1562H29.5723V101.834H86.716V99.1562Z" fill="black"/>
<path d="M76.4473 49.8223H38.9463V52.5H76.4473V49.8223Z" fill="black"/>
<path d="M29.4763 101.834C23.4048 101.834 16.8525 96.5719 16.8525 88.0701C16.8525 79.4849 24.377 69.9285 29.4763 69.9285C34.5756 69.9285 42.1018 79.4849 42.1018 88.0701C42.1018 96.5719 35.5478 101.834 29.4763 101.834ZM29.4763 72.6062C26.3493 72.6062 19.5303 80.3693 19.5303 88.0701C19.5303 95.6331 25.4649 99.1566 29.4763 99.1566C33.4877 99.1566 39.424 95.6331 39.424 88.0701C39.424 80.3693 32.6033 72.6062 29.4763 72.6062Z" fill="black"/>
<path d="M101.447 86.2H98.7696V56.384C98.7626 55.6128 98.4713 48.7999 90.2871 48.7999H88.9482V20.3315H91.626V46.1757C99.354 46.8188 101.447 53.021 101.447 56.384V86.2Z" fill="black"/>
<path d="M100.109 99.1562H62.7041V101.834H100.109V99.1562Z" fill="black"/>
<path d="M95.2935 21.6702H65.3994V13.1658H95.2935V21.6702ZM68.0772 18.9925H92.6158V15.8435H68.0772V18.9925Z" fill="black"/>
<path d="M101.208 101.834C77.6365 101.834 62.5034 84.6032 61.87 83.8697C61.5331 83.4792 61.4506 82.93 61.6576 82.458L63.1966 78.9405C63.351 78.5861 63.6528 78.3158 64.0213 78.2C64.3916 78.0851 64.7916 78.1351 65.1233 78.3352C71.8247 82.4422 84.3028 84.6137 101.208 84.6137C124.415 84.6137 139.78 79.1967 142.452 74.1009C142.705 73.6219 143.203 73.3411 143.756 73.3885C144.293 73.4359 144.751 73.8017 144.914 74.3167C145.284 75.4784 144.44 81.0217 140.346 86.6211C135.272 93.5612 124.364 101.834 101.208 101.834ZM64.4617 82.7291C67.3764 85.7718 81.3285 99.1563 101.208 99.1563C121.176 99.1563 131.288 92.7523 136.256 87.3801C139.044 84.3628 140.597 81.3103 141.433 78.9739C134.44 84.0118 119.177 87.2915 101.208 87.2915C84.8415 87.2915 72.402 85.2507 65.0549 81.3753L64.4617 82.7291Z" fill="black"/>
<path d="M103.365 91.5279C94.4471 91.5279 83.6606 90.6514 70.9053 88.2088L71.4106 85.5784C114.773 93.8846 135.189 83.5841 135.391 83.4797L136.63 85.8539C136.021 86.1715 125.403 91.5279 103.365 91.5279Z" fill="black"/>
<path d="M144.747 75.4723L142.525 73.9737C142.973 73.2639 144.587 68.2198 145.888 63.7566L148.46 64.5059C147.802 66.7616 145.591 74.2202 144.747 75.4723Z" fill="black"/>
<path d="M71.9854 20.3315H69.3076V46.3099H71.9854V20.3315Z" fill="black"/>
</svg>
